<?xml version="1.0" encoding="UTF-8"?> <svg xmlns="http://www.w3.org/2000/svg" width="598" height="228" viewBox="0 0 598 228" fill="none"><g clip-path="url(#clip0_171_2)"><rect x="19" y="53.1996" width="186.199" height="119.699" fill="white"></rect><rect width="227.966" height="227.966" fill="#001AFF"></rect><path d="M303.546 107.422L290.91 108.8C290.553 107.524 289.927 106.324 289.034 105.201C288.166 104.078 286.991 103.171 285.511 102.482C284.03 101.793 282.218 101.448 280.073 101.448C277.189 101.448 274.764 102.074 272.798 103.324C270.858 104.575 269.9 106.196 269.926 108.188C269.9 109.898 270.526 111.289 271.802 112.361C273.104 113.434 275.249 114.314 278.235 115.004L288.268 117.148C293.833 118.348 297.969 120.25 300.675 122.853C303.406 125.457 304.785 128.865 304.81 133.077C304.785 136.779 303.7 140.047 301.555 142.88C299.436 145.688 296.488 147.884 292.71 149.466C288.932 151.049 284.592 151.841 279.69 151.841C272.492 151.841 266.697 150.334 262.306 147.322C257.915 144.284 255.298 140.059 254.456 134.647L267.973 133.345C268.586 136 269.888 138.004 271.879 139.357C273.87 140.71 276.461 141.387 279.652 141.387C282.945 141.387 285.587 140.71 287.579 139.357C289.595 138.004 290.604 136.332 290.604 134.341C290.604 132.656 289.953 131.265 288.651 130.167C287.374 129.07 285.383 128.227 282.677 127.64L272.645 125.534C267.003 124.36 262.829 122.381 260.123 119.599C257.417 116.791 256.077 113.242 256.103 108.953C256.077 105.328 257.06 102.188 259.051 99.5335C261.068 96.8531 263.863 94.7853 267.437 93.3302C271.036 91.8496 275.185 91.1093 279.882 91.1093C286.774 91.1093 292.199 92.5772 296.156 95.5129C300.138 98.4486 302.602 102.418 303.546 107.422ZM341.896 151.841C336.024 151.841 330.983 150.551 326.771 147.973C322.584 145.395 319.355 141.834 317.083 137.29C314.836 132.72 313.713 127.461 313.713 121.513C313.713 115.54 314.862 110.268 317.159 105.699C319.457 101.104 322.699 97.5296 326.885 94.9768C331.098 92.3985 336.076 91.1093 341.819 91.1093C346.593 91.1093 350.818 91.99 354.494 93.7514C358.196 95.4874 361.144 97.9508 363.34 101.142C365.535 104.307 366.786 108.009 367.092 112.247H353.843C353.307 109.413 352.031 107.052 350.014 105.162C348.023 103.248 345.355 102.291 342.011 102.291C339.177 102.291 336.688 103.056 334.544 104.588C332.4 106.094 330.727 108.264 329.528 111.098C328.353 113.931 327.766 117.327 327.766 121.283C327.766 125.291 328.353 128.738 329.528 131.622C330.702 134.481 332.348 136.69 334.467 138.247C336.612 139.779 339.126 140.544 342.011 140.544C344.053 140.544 345.878 140.161 347.487 139.396C349.12 138.604 350.486 137.468 351.584 135.988C352.682 134.507 353.435 132.707 353.843 130.588H367.092C366.76 134.75 365.535 138.438 363.416 141.655C361.297 144.846 358.413 147.348 354.762 149.16C351.112 150.947 346.823 151.841 341.896 151.841ZM392.336 116.229V150.692H378.474V72.2696H392.03V101.869H392.719C394.098 98.5507 396.229 95.9341 399.114 94.0195C402.024 92.0794 405.726 91.1093 410.219 91.1093C414.303 91.1093 417.864 91.9645 420.902 93.6749C423.94 95.3852 426.288 97.887 427.948 101.18C429.633 104.473 430.475 108.494 430.475 113.242V150.692H416.613V115.386C416.613 111.43 415.592 108.353 413.55 106.158C411.533 103.937 408.7 102.827 405.049 102.827C402.598 102.827 400.403 103.363 398.463 104.435C396.548 105.482 395.042 107.001 393.944 108.992C392.872 110.983 392.336 113.395 392.336 116.229ZM470.261 151.841C464.517 151.841 459.539 150.577 455.327 148.05C451.115 145.522 447.847 141.987 445.524 137.443C443.226 132.899 442.078 127.589 442.078 121.513C442.078 115.438 443.226 110.115 445.524 105.545C447.847 100.976 451.115 97.4275 455.327 94.9002C459.539 92.3729 464.517 91.1093 470.261 91.1093C476.004 91.1093 480.982 92.3729 485.194 94.9002C489.407 97.4275 492.661 100.976 494.959 105.545C497.282 110.115 498.444 115.438 498.444 121.513C498.444 127.589 497.282 132.899 494.959 137.443C492.661 141.987 489.407 145.522 485.194 148.05C480.982 150.577 476.004 151.841 470.261 151.841ZM470.337 140.736C473.452 140.736 476.055 139.881 478.149 138.17C480.242 136.434 481.799 134.111 482.82 131.201C483.867 128.291 484.39 125.049 484.39 121.475C484.39 117.875 483.867 114.621 482.82 111.71C481.799 108.775 480.242 106.439 478.149 104.703C476.055 102.967 473.452 102.099 470.337 102.099C467.146 102.099 464.491 102.967 462.372 104.703C460.279 106.439 458.709 108.775 457.662 111.71C456.641 114.621 456.131 117.875 456.131 121.475C456.131 125.049 456.641 128.291 457.662 131.201C458.709 134.111 460.279 136.434 462.372 138.17C464.491 139.881 467.146 140.736 470.337 140.736ZM535.864 151.841C530.121 151.841 525.143 150.577 520.931 148.05C516.718 145.522 513.451 141.987 511.128 137.443C508.83 132.899 507.682 127.589 507.682 121.513C507.682 115.438 508.83 110.115 511.128 105.545C513.451 100.976 516.718 97.4275 520.931 94.9002C525.143 92.3729 530.121 91.1093 535.864 91.1093C541.608 91.1093 546.586 92.3729 550.798 94.9002C555.011 97.4275 558.265 100.976 560.563 105.545C562.886 110.115 564.047 115.438 564.047 121.513C564.047 127.589 562.886 132.899 560.563 137.443C558.265 141.987 555.011 145.522 550.798 148.05C546.586 150.577 541.608 151.841 535.864 151.841ZM535.941 140.736C539.055 140.736 541.659 139.881 543.753 138.17C545.846 136.434 547.403 134.111 548.424 131.201C549.471 128.291 549.994 125.049 549.994 121.475C549.994 117.875 549.471 114.621 548.424 111.71C547.403 108.775 545.846 106.439 543.753 104.703C541.659 102.967 539.055 102.099 535.941 102.099C532.75 102.099 530.095 102.967 527.976 104.703C525.883 106.439 524.313 108.775 523.266 111.71C522.245 114.621 521.735 117.875 521.735 121.475C521.735 125.049 522.245 128.291 523.266 131.201C524.313 134.111 525.883 136.434 527.976 138.17C530.095 139.881 532.75 140.736 535.941 140.736ZM589.674 72.2696V150.692H575.813V72.2696H589.674Z" fill="black"></path><path d="M33.2371 77.5589H62.0288C67.7282 77.5589 71.9699 77.8045 74.7541 78.2959C77.5711 78.7544 80.0768 79.7371 82.2714 81.2438C84.4988 82.7506 86.3494 84.765 87.8234 87.2871C89.2974 89.7765 90.0344 92.5771 90.0344 95.6888C90.0344 99.0626 89.1172 102.158 87.2829 104.975C85.4814 107.792 83.0248 109.905 79.9131 111.313C84.3022 112.59 87.676 114.769 90.0344 117.848C92.3927 120.927 93.5719 124.546 93.5719 128.706C93.5719 131.981 92.8022 135.175 91.2627 138.287C89.756 141.366 87.676 143.839 85.0228 145.706C82.4024 147.54 79.1597 148.67 75.2946 149.096C72.8707 149.358 67.0239 149.522 57.7542 149.587H33.2371V77.5589ZM47.7803 89.5472V106.203H57.3121C62.9787 106.203 66.4999 106.121 67.8756 105.958C70.3649 105.663 72.3139 104.811 73.7223 103.403C75.1636 101.961 75.8842 100.078 75.8842 97.7524C75.8842 95.525 75.2618 93.7235 74.0171 92.3478C72.8052 90.9393 70.9873 90.0877 68.5634 89.7929C67.1222 89.6291 62.9787 89.5472 56.1329 89.5472H47.7803ZM47.7803 118.192V137.452H61.2427C66.4835 137.452 69.8081 137.304 71.2166 137.009C73.3784 136.616 75.1308 135.666 76.4738 134.16C77.8495 132.62 78.5373 130.573 78.5373 128.018C78.5373 125.856 78.0133 124.022 76.9651 122.515C75.9169 121.008 74.3938 119.911 72.3958 119.223C70.4305 118.535 66.1395 118.192 59.523 118.192H47.7803ZM105.462 149.587V77.5589H120.005V149.587H105.462ZM167.418 123.105V110.969H198.765V139.662C195.719 142.61 191.297 145.214 185.499 147.475C179.734 149.702 173.887 150.816 167.959 150.816C160.425 150.816 153.858 149.243 148.257 146.099C142.655 142.922 138.446 138.401 135.629 132.538C132.812 126.642 131.404 120.239 131.404 113.327C131.404 105.827 132.976 99.1609 136.121 93.3304C139.265 87.5 143.867 83.029 149.927 79.9172C154.545 77.5261 160.294 76.3306 167.173 76.3306C176.115 76.3306 183.092 78.214 188.103 81.9808C193.147 85.7149 196.39 90.8902 197.831 97.5067L183.386 100.209C182.371 96.6715 180.455 93.8873 177.638 91.8565C174.854 89.7929 171.365 88.7611 167.173 88.7611C160.818 88.7611 155.757 90.7756 151.991 94.8044C148.257 98.8333 146.389 104.811 146.389 112.738C146.389 121.287 148.289 127.707 152.089 131.998C155.888 136.256 160.867 138.385 167.025 138.385C170.071 138.385 173.118 137.795 176.164 136.616C179.243 135.404 181.88 133.947 184.074 132.243V123.105H167.418Z" fill="#FDFDFF"></path></g><defs><clipPath id="clip0_171_2"><rect width="597.545" height="227.966" fill="white"></rect></clipPath></defs></svg> 